<svg width="25" height="28" viewBox="0 0 25 28" fill="none" xmlns="http://www.w3.org/2000/svg">
<path d="M23.6283 19.3914C23.5263 19.2709 23.4261 19.1504 23.3277 19.0341C21.9754 17.4303 21.1572 16.4624 21.1572 11.9225C21.1572 9.57201 20.5837 7.64344 19.4532 6.19701C18.6196 5.12846 17.4929 4.31786 16.0077 3.71879C15.9886 3.70837 15.9715 3.6947 15.9573 3.67841C15.4231 1.92462 13.9613 0.75 12.3127 0.75C10.664 0.75 9.20281 1.92462 8.66862 3.67661C8.65438 3.69232 8.63755 3.70556 8.61882 3.71578C5.15306 5.1146 3.46874 7.79833 3.46874 11.9206C3.46874 16.4624 2.65178 17.4303 1.29817 19.0323C1.19982 19.1486 1.09962 19.2667 0.997578 19.3896C0.733988 19.7013 0.566982 20.0805 0.516325 20.4823C0.465668 20.8841 0.533479 21.2917 0.711735 21.6569C1.09101 22.4404 1.89937 22.9268 2.82205 22.9268H21.81C22.7284 22.9268 23.5312 22.441 23.9117 21.6611C24.0907 21.2958 24.1592 20.8879 24.109 20.4856C24.0588 20.0833 23.892 19.7036 23.6283 19.3914ZM12.3127 27.75C13.2009 27.7493 14.0725 27.5129 14.8348 27.0659C15.5971 26.6188 16.2219 25.9779 16.6427 25.2109C16.6625 25.1742 16.6723 25.133 16.6711 25.0914C16.6699 25.0499 16.6578 25.0093 16.6359 24.9737C16.614 24.9381 16.5831 24.9087 16.5461 24.8882C16.5092 24.8678 16.4675 24.8571 16.4251 24.8571H8.20143C8.15897 24.857 8.1172 24.8676 8.08017 24.888C8.04315 24.9084 8.01214 24.9378 7.99017 24.9735C7.96819 25.0091 7.956 25.0497 7.95478 25.0913C7.95357 25.1329 7.96336 25.1741 7.98321 25.2109C8.404 25.9778 9.02863 26.6187 9.79085 27.0657C10.5531 27.5127 11.4245 27.7492 12.3127 27.75Z" fill="white"/>
</svg>
