<svg width="141" height="29" viewBox="0 0 141 29" fill="none" xmlns="http://www.w3.org/2000/svg">
<path d="M26.1968 13.974V11.8917C26.1968 5.76873 21.2986 0.801025 15.2548 0.801025H10.9359C4.89825 0.801025 0 5.76873 0 11.892V13.9744C0 20.0977 4.89825 25.0654 10.9359 25.0654H15.2548C15.4735 25.0654 15.6796 25.0461 15.8918 25.0329C15.8918 25.0329 20.6676 28.1989 22.5021 28.1989C22.6243 28.1989 22.7338 28.1858 22.8239 28.1532C22.8239 28.1532 23.9504 27.9573 21.2856 23.2246C24.2401 21.2398 26.1968 17.8388 26.1968 13.974ZM7.21531 3.40567H7.47259C9.55144 3.40567 11.2318 5.11602 11.2318 7.21778V17.0878C10.1248 17.0878 9.12048 16.6309 8.3933 15.8931C7.66574 15.1556 7.21531 14.137 7.21531 13.0143V3.40567ZM11.2318 21.7489C10.1248 21.7489 9.12048 21.292 8.3933 20.5608C7.66574 19.8233 7.21531 18.8047 7.21531 17.682V15.0905C7.21531 15.0905 8.02647 17.6104 11.1157 17.6754H16.6832C18.9036 17.6754 20.7061 19.4969 20.7061 21.7489H11.2318Z" fill="white"/>
<path d="M97.377 9.04642H94.4133C93.5144 9.04642 92.788 8.58108 92.788 7.70848C92.788 6.83588 93.5148 6.37054 94.4133 6.37054H103.477C104.376 6.37054 105.103 6.83588 105.103 7.70848C105.103 8.58108 104.376 9.04642 103.477 9.04642H100.513V18.9958C100.513 19.9462 99.9014 20.5857 98.9451 20.5857C97.9889 20.5857 97.377 19.9462 97.377 18.9958V9.04642Z" fill="white"/>
<path d="M108.43 7.08818C108.698 6.37043 109.195 6.11841 109.96 6.11841H110.706C111.414 6.11841 112.045 6.29301 112.389 7.28175L116.175 17.9678C116.29 18.2775 116.481 18.8404 116.481 19.1892C116.481 19.965 115.812 20.5852 115.009 20.5852C114.32 20.5852 113.823 20.3336 113.594 19.7126L112.79 17.386H107.743L106.92 19.7126C106.71 20.3336 106.27 20.5852 105.524 20.5852C104.664 20.5852 104.071 20.0429 104.071 19.1892C104.071 18.8404 104.262 18.2775 104.377 17.9678L108.43 7.08818ZM110.323 9.57087H110.285L108.43 15.1758H112.102L110.323 9.57087Z" fill="white"/>
<path d="M117.724 7.70837C117.724 6.75834 118.337 6.11841 119.292 6.11841C120.248 6.11841 120.86 6.75834 120.86 7.70837V17.6577H126.1C126.999 17.6577 127.725 18.1231 127.725 18.9957C127.725 19.8683 126.999 20.3336 126.1 20.3336H119.56C118.451 20.3336 117.724 19.8872 117.724 18.4723V7.70837Z" fill="white"/>
<path d="M129.027 7.70837C129.027 6.75834 129.639 6.11841 130.595 6.11841C131.551 6.11841 132.163 6.75834 132.163 7.70837V12.3246L137.096 6.8168C137.46 6.42928 137.785 6.1188 138.34 6.1188C139.085 6.1188 139.831 6.58413 139.831 7.39905C139.831 7.88335 139.582 8.21319 139.315 8.48457L136.102 11.9173L139.907 17.7936C140.194 18.2392 140.5 18.6465 140.5 19.0537C140.5 20.2368 139.64 20.5856 138.894 20.5856C138.263 20.5856 137.919 20.4308 137.498 19.7517L133.884 14.0891L132.163 15.8347V18.996C132.163 19.9465 131.551 20.586 130.595 20.586C129.639 20.586 129.027 19.9465 129.027 18.996V7.70837H129.027Z" fill="white"/>
<path d="M36.7221 18.4355H33.7717V7.8892C33.7717 7.36773 33.3541 6.93878 32.8346 6.93878H32.7167C32.1971 6.93878 31.7795 7.36773 31.7795 7.8892V19.3863C31.7795 19.9132 32.1971 20.3367 32.7167 20.3367H36.7221C37.2363 20.3367 37.6539 19.9132 37.6539 19.3863C37.6539 18.8648 37.2363 18.4355 36.7221 18.4355Z" fill="white"/>
<path d="M41.4185 6.93878C40.8723 6.93878 40.4226 7.39483 40.4226 7.94882V19.3263C40.4226 19.8857 40.8723 20.3363 41.4185 20.3363C41.9701 20.3363 42.4198 19.8857 42.4198 19.3263V7.94882C42.4198 7.39483 41.9701 6.93878 41.4185 6.93878Z" fill="white"/>
<path d="M57.0975 6.93878C56.5459 6.93878 56.1015 7.39483 56.1015 7.94882V16.2525L47.7853 7.42735C47.3086 6.92214 46.468 7.26436 46.468 7.96508V19.3263C46.468 19.8857 46.9123 20.3363 47.4639 20.3363C48.0155 20.3363 48.4598 19.8857 48.4598 19.3263V10.9576L56.776 19.7611C57.2524 20.2663 58.0934 19.9186 58.0934 19.2233V7.94882C58.0937 7.39483 57.649 6.93878 57.0975 6.93878Z" fill="white"/>
<path d="M73.6976 13.3608H70.0029C69.4887 13.3608 69.0657 13.7843 69.0657 14.3112C69.0657 14.8326 69.4887 15.2616 70.0029 15.2616H72.3589C72.268 16.2012 71.834 17.0103 71.0522 17.6893C70.2705 18.3625 69.3868 18.6939 68.4069 18.6939C67.2556 18.6939 66.1845 18.2487 65.1993 17.3525C64.1442 16.3858 63.6144 15.1532 63.6144 13.665C63.6144 12.2148 64.0908 11.0147 65.0386 10.0535C65.9864 9.07595 67.1537 8.587 68.5516 8.587C69.8315 8.587 70.9507 9.08137 71.9145 10.0697C72.0966 10.2544 72.3321 10.3465 72.573 10.3465C72.8139 10.3465 73.0601 10.2544 73.2425 10.0751C73.6334 9.69498 73.6495 9.05969 73.2586 8.67953C72.6535 8.0876 72.0378 7.63156 71.411 7.32185C70.5167 6.8929 69.5528 6.67572 68.5195 6.67572C66.5971 6.67572 64.9638 7.36017 63.6251 8.71785C62.2864 10.0701 61.6168 11.7212 61.6168 13.6654C61.6168 15.5663 62.2753 17.1953 63.5926 18.5584C64.9099 19.9107 66.4895 20.5897 68.337 20.5897C70.2327 20.5897 71.7909 19.889 73.0173 18.488C73.5636 17.8635 73.9491 17.1899 74.1739 16.4733C74.3774 15.8001 74.495 15.0343 74.5221 14.1761C74.5221 14.1706 74.5221 14.1706 74.5221 14.1706C74.4526 13.5237 73.9705 13.3879 73.6976 13.3608Z" fill="white"/>
<path d="M89.034 8.73395C87.6846 7.37085 86.0726 6.6864 84.1877 6.6864C82.2867 6.6864 80.6533 7.36544 79.2932 8.7177C77.9331 10.07 77.2533 11.6882 77.2533 13.5782C77.2533 15.7233 77.9976 17.4557 79.4917 18.7809C80.8518 19.981 82.3833 20.5783 84.0861 20.5783C86.0138 20.5783 87.6632 19.9047 89.0233 18.5579C90.3834 17.2165 91.0583 15.582 91.0583 13.654C91.0579 11.7373 90.3834 10.0971 89.034 8.73395ZM87.6201 17.2277C86.6669 18.1998 85.4996 18.6887 84.1125 18.6887C82.8325 18.6887 81.7084 18.211 80.7335 17.2552C79.7536 16.2993 79.2608 15.083 79.2608 13.6002C79.2608 12.1884 79.7318 11.0045 80.6796 10.0432C81.6274 9.07115 82.7894 8.58762 84.1655 8.58762C85.5416 8.58762 86.7036 9.07115 87.6354 10.0432C88.5778 11.0099 89.0493 12.21 89.0493 13.6386C89.05 15.0501 88.5733 16.2447 87.6201 17.2277Z" fill="white"/>
</svg>
